<svg xmlns="http://www.w3.org/2000/svg" viewBox="0 0 411.469 203.223" enable-background="new 0 0 411.469 203.223"><g stroke="#000" stroke-miterlimit="10"><g fill="#dac58c" stroke-width="8"><path d="M196.79 63.12L190.03 90.62 183.35 62.822 168.48 62.822 180.65 106.54 194.47 106.54 206.79 63.12z"/><path d="M236 97.34c-.802.125-1.604.238-2.404.338-.802.101-1.427.15-1.878.15-3.455-.049-6.135-1.251-8.04-3.605-1.904-2.354-2.881-5.884-2.93-10.592 0-2.303.062-4.319.188-6.05.124-1.728.4-3.18.826-4.357.425-1.176 1.039-2.053 1.841-2.629.8-.575 1.852-.864 3.154-.864 1 0 2.254.139 3.756.413 1.503.276 2.941.577 4.319.902 1.377.326 3.067.739 5.071 1.239l-.226-7.813-.977-.225c-2.604-.601-4.92-1.026-6.948-1.277-2.028-.25-3.819-.376-5.371-.376-3.105 0-5.947.601-8.526 1.803-2.579 1.202-4.796 2.867-6.647 4.995-1.854 2.129-3.293 4.67-4.319 7.625-1.027 2.956-1.54 6.16-1.54 9.615 0 3.055.425 5.847 1.277 8.375.851 2.529 2.065 4.721 3.643 6.573 1.578 1.854 3.48 3.281 5.709 4.282 2.228 1 4.695 1.502 7.399 1.502 1.902 0 4.068-.238 6.498-.714 2.428-.475 5.521-1.264 9.276-2.366l1.052-.3-1.202-7.136C237.8 97.05 236.8 97.21 236 97.34z"/><path d="M281.37 59.968c-1.953-2.604-4.395-4.444-7.324-5.521-2.93-1.077-6.773-1.589-11.53-1.54l-17.729.15 0 53.634 15.625-.15c4.256-.049 7.85-.575 10.779-1.578 2.93-1 5.57-2.729 7.925-5.183l-.075 0c5.058-5.108 7.587-12.319 7.587-21.634C286.63 70.73 284.87 64.67 281.37 59.968zM270.59 88.17c-.427 2.43-1.052 4.395-1.878 5.897s-1.878 2.58-3.155 3.23c-1.277.651-2.792.977-4.545.977l-1.201 0L259.81 61.17l1.728 0c1.052 0 1.965.075 2.741.226s1.439.401 1.991.751c.55.351 1.052.827 1.502 1.427.451.601.876 1.328 1.277 2.179.7 1.453 1.251 3.318 1.652 5.596.4 2.279.575 4.92.526 7.925C271.23 82.78 271.01 85.75 270.59 88.17z"/><path d="M324.62 68.08c-1.728-1.903-3.831-3.354-6.31-4.357-2.479-1-5.296-1.502-8.451-1.502-3.154 0-5.984.563-8.488 1.69-2.505 1.126-4.646 2.717-6.422 4.77-1.778 2.054-3.155 4.52-4.132 7.399-.977 2.88-1.465 6.073-1.465 9.578 0 3.305.463 6.298 1.39 8.977.926 2.68 2.266 4.958 4.02 6.835s3.855 3.331 6.311 4.357c2.453 1.026 5.232 1.54 8.338 1.54 3.155 0 5.996-.575 8.525-1.728 2.528-1.152 4.683-2.742 6.461-4.77 1.776-2.028 3.154-4.481 4.131-7.362.977-2.879 1.465-6.05 1.465-9.502 0-3.354-.464-6.372-1.39-9.05C327.67 72.28 326.34 69.984 324.62 68.08zM314.66 93.25c-.2 1.803-.501 3.192-.901 4.169-.401.977-.927 1.641-1.577 1.991-.651.351-1.428.526-2.329.526s-1.703-.212-2.403-.639c-.702-.425-1.277-1.227-1.728-2.404-.451-1.176-.789-2.779-1.015-4.808-.225-2.028-.338-4.645-.338-7.85 0-3 .087-5.433.263-7.287.175-1.852.476-3.279.901-4.282.426-1 .951-1.677 1.578-2.028.625-.35 1.39-.525 2.291-.525.95 0 1.776.213 2.479.638.701.426 1.289 1.228 1.766 2.404.476 1.177.813 2.805 1.014 4.883.2 2.079.301 4.77.301 8.08C314.96 89.06 314.86 91.44 314.66 93.25z"/><path d="M356.06 63.2c-1.653-.4-3.507-.601-5.56-.601-2.554 0-4.908.376-7.06 1.127-2.154.751-4.02 1.829-5.597 3.23-1.577 1.403-2.805 3.068-3.681 4.996-.877 1.928-1.314 4.04-1.314 6.347 0 5.91 2.679 10.09 8.04 12.545-1.103.952-2.028 1.791-2.78 2.516-.751.727-1.364 1.403-1.84 2.028-.477.627-.814 1.24-1.015 1.84-.2.601-.3 1.252-.3 1.953 0 1.604.676 3.13 2.028 4.582-1.303.853-2.38 1.591-3.23 2.216-.853.626-1.527 1.239-2.028 1.84-.5.601-.851 1.202-1.052 1.803-.199.601-.3 1.277-.3 2.028.05 1.803.589 3.418 1.614 4.845 1.026 1.427 2.404 2.641 4.132 3.643 1.728 1 3.756 1.777 6.085 2.329 2.328.55 4.819.826 7.474.826 3.354 0 6.485-.439 9.39-1.314 2.904-.877 5.421-2.104 7.55-3.681 2.128-1.578 3.805-3.481 5.03-5.709 1.227-2.229 1.84-4.67 1.84-7.324 0-3.104-.977-5.608-2.93-7.512l0-.075c-1.152-1.101-2.467-1.84-3.943-2.216-1.478-.375-3.493-.563-6.05-.563l-9.991 0c-.901 0-1.565-.024-1.99-.075-.426-.049-.714-.112-.864-.188s-.225-.162-.225-.263c0-.15-.026-.325-.075-.526 0-.199 0-.35 0-.451 0-.15.049-.35.149-.601 1 .201 2.104.3 3.306.3 2.504 0 4.832-.35 6.986-1.052 2.152-.701 4.02-1.69 5.596-2.967 1.578-1.277 2.805-2.804 3.681-4.582.876-1.777 1.314-3.768 1.314-5.972 0-2.453-.576-4.682-1.728-6.686l8.413 2.479 0-9.165-14.272 0C359.31 64.25 357.71 63.6 356.06 63.2zM357.26 107.37c1.052 0 1.841.024 2.366.075.526.049.913.15 1.165.3.25.15.387.35.413.601.024.25.087.575.188.977.049.65-.176 1.314-.676 1.991-.502.676-1.24 1.289-2.217 1.84-.977.55-2.153 1-3.53 1.352-1.378.35-2.892.526-4.545.526-1.352 0-2.579-.139-3.681-.413-1.102-.276-2.054-.639-2.854-1.089-.802-.451-1.402-.952-1.803-1.502-.401-.552-.576-1.102-.525-1.652 0-.301.112-.714.338-1.24s.425-.977.601-1.352c.175-.375.288-.589.338-.639l3.531.226L357.26 107.37zM353.77 84.944c-.576.676-1.539 1.064-2.892 1.165-.651.05-1.266-.137-1.841-.563-.576-.425-1.077-1.101-1.502-2.028-.426-.926-.764-2.103-1.014-3.53-.252-1.427-.376-3.142-.376-5.146.049-2 .376-3.354.977-4.057.601-.701 1.552-1.101 2.854-1.202.65-.049 1.264.138 1.84.563.575.426 1.077 1.089 1.503 1.991.425.901.763 2.066 1.014 3.493.25 1.427.376 3.143.376 5.146C354.66 82.88 354.34 84.27 353.77 84.944z"/><path d="M407.02 89.38c-.301-1.127-.789-2.19-1.465-3.192-.677-1-1.566-1.978-2.667-2.93-1.103-.951-2.454-1.953-4.057-3l-5.03-3.23 0-.075c-1-.65-1.766-1.164-2.291-1.54-.526-.375-.915-.713-1.165-1.014-.251-.3-.401-.612-.45-.939-.051-.325-.075-.713-.075-1.164-.051-1 .35-1.79 1.202-2.366.851-.575 1.852-.864 3-.864.951 0 2.04.138 3.268.413 1.227.276 2.378.563 3.456.864 1.076.3 2.366.727 3.868 1.277l1.652.676-.074-7.512-2.705-.601c-1.603-.35-3.02-.625-4.244-.826-1.228-.2-2.316-.363-3.268-.488-.951-.125-1.803-.2-2.554-.226-.751-.024-1.502-.038-2.254-.038-2.153 0-4.131.301-5.934.901-1.803.601-3.343 1.465-4.62 2.592s-2.279 2.505-3 4.131c-.727 1.628-1.089 3.418-1.089 5.371 0 1.303.137 2.492.413 3.568.274 1.078.726 2.092 1.352 3.042.626.952 1.439 1.891 2.441 2.817 1 .927 2.229 1.866 3.682 2.817l4.882 3.305c1.252.852 2.229 1.54 2.93 2.066s1.227.989 1.578 1.39c.35.401.563.764.638 1.089.075.326.113.739.113 1.239.049.501-.075.965-.376 1.39-.3.426-.714.802-1.239 1.127-.525.326-1.127.576-1.803.751-.676.176-1.365.263-2.065.263-1.052 0-2.217-.162-3.493-.488-1.277-.325-2.479-.688-3.605-1.089-1.127-.4-2.468-.977-4.02-1.728l-1.652-.976-.226 8.413.901.225c2.955.751 5.759 1.365 8.413 1.84 2.654.476 4.833.714 6.536.714 2.253 0 4.331-.338 6.234-1.014 1.902-.676 3.542-1.64 4.92-2.892 1.377-1.251 2.453-2.767 3.23-4.544.775-1.777 1.164-3.718 1.164-5.822C407.47 91.74 407.32 90.5 407.02 89.38z"/></g><g fill="#f6e39e"><path stroke-width="6" d="M96.7 32.473c0 0-13 23-15.5 33.5 0 0-9 14.5-14 29.5 0 0-10 14.5-15 46.5 0 0-23 13.5-27.5 19.5 0 0-22.667-5.832-21.667 17.834 0 0 10 4.334 23.333 0l9-3.667c0 0 21.333-5.667 27.333-2 0 0 8-2 12-9.667 0 0 5.333-6.666 10.333-7.333 0 0 8.667 14.999 24.667 19.333 0 0-21.667 6.334-19.667 17.667 0 0 11.666 7 18.333 5.667 0 0 12.334 3.666 16.667-3.667 0 0 5.333-12 15.667-14l7-7c0 0 26.668-6 35.33-13 0 0 10.332 6.666 19.999 5.666 0 0 6.334-4 15.667-4 0 0 15.667.667 20 12.667l6 8.667 16.334 4.666c0 0 13.785 7.334 13.785-3.666 0 0 4.547-6-13.12-7.667 0 0-12.666-8.333-17.666-17.333 0 0-9.667-23-21.334-33.33 0 0-7-11-12-14 0 0-13.666-17-35-23 0 0-15.333-4.333-22.333-4 0 0-3-9 0-13.667l12.333-24c0 0 8.333-21.667-15.667-16.17 0 0-4.722 1.5-10.861-14.167 0 0-6.139-13.667-20.14-10.333 0 0-16-13.333-29.333 3.667l-12 10.333 3 17 16.667-23C97.37 15.973 92.7 21.306 96.7 32.473z"/><path stroke-width="4" d="M164.79 31.586c-6.75-5.25-1.087-7.113-1.087-7.113-6.5-13.75-16.25-13.75-16.25-13.75l-11.861 2.398 10.778 19.19C146.37 32.31 171.54 36.836 164.79 31.586z"/></g></g><g fill="#dac58c"><path d="M122.56 7.472c0 0 8.422 12.91-3.054 21.539 0 0-10.358 16.928-8.08 24.612 0 0-7.726 13.684-8.06 17.684 0 0 0 27.667-4 31.667 0 0 7 14.333 4.667 24.667 0 0 1 14.334 10 18 0 0 10.333 5.666 5.333 17.666 0 0-5.18 12.758-12.256 13.546L85.03 156.64l-22.333 17c0 0-24.423-.999-33.878 4.667 0 0-19.788 6.334-25.788 1 0 0-5.448-19.09 22.11-18.381 0 0 21.557-16.953 27.06-18.953 0 0 5.167-36.33 15-46.5 0 0 8.497-29.476 14.165-30.16l15.335-32.845-1.29-11.888L80.26 36.473l-2.559-14.5c0 0 20.79-19.309 26.296-18.909L122.56 7.472"/><path d="M146.37 175.97c0 0 10-5.999 6.333-17.666l35.33-9.334c0 0 9 10.666 30.667 14.333l-15.667 4-19.999-5.666L146.37 175.97"/></g><g stroke-miterlimit="10"><g fill="none" stroke="#000"><g stroke-width="2"><path d="M157.7 36.473c0 0 2.25 7.5-1.5 10.5"/><path d="M133.7 30.473c0 0-10 5.5-10.75 7.5s-3.5-9.5-10-11.25S122.13 31.32 133.7 30.473z"/><path d="M147.45 29.22c0 0 6-.75 5.25-6 0 0 5.92 4.474 4.585 8.362C157.28 31.584 149.95 31.723 147.45 29.22z"/></g><path stroke-width="1.792" d="M127.56 55.14c0 0 8.864 7.517 19.887 4.497l5.02.715L155.1 46.89c0 0-21.833 7.587-29.734 1.75L127.56 55.14z"/><path stroke-width="2" d="M143.95 34.723c0 0-6.116 6.187-4.777 9.333"/><path stroke-width="6" d="M96.7 32.473c0 0-13 23-15.5 33.5 0 0-9 14.5-14 29.5 0 0-10 14.5-15 46.5 0 0-23 13.5-27.5 19.5 0 0-22.667-5.832-21.667 17.834 0 0 10 4.334 23.333 0l9-3.667c0 0 21.333-5.667 27.333-2 0 0 8-2 12-9.667 0 0 5.333-6.666 10.333-7.333 0 0 8.667 14.999 24.667 19.333 0 0-21.667 6.334-19.667 17.667 0 0 11.666 7 18.333 5.667 0 0 12.334 3.666 16.667-3.667 0 0 5.333-12 15.667-14l7-7c0 0 26.668-6 35.33-13 0 0 10.332 6.666 19.999 5.666 0 0 6.334-4 15.667-4 0 0 15.667.667 20 12.667l6 8.667 16.334 4.666c0 0 13.785 7.334 13.785-3.666 0 0 4.547-6-13.12-7.667 0 0-12.666-8.333-17.666-17.333 0 0-9.667-23-21.334-33.33 0 0-7-11-12-14 0 0-13.666-17-35-23 0 0-15.333-4.333-22.333-4 0 0-3-9 0-13.667l12.333-24c0 0 8.333-21.667-15.667-16.17 0 0-4.722 1.5-10.861-14.167 0 0-6.139-13.667-20.14-10.333 0 0-16-13.333-29.333 3.667l-12 10.333 3 17 16.667-23C97.37 15.973 92.7 21.306 96.7 32.473z"/></g><g fill="#f6e39e" stroke="#f2f1ec" stroke-width="2"><path d="M196.79 63.12L190.03 90.62 183.35 62.822 168.48 62.822 180.65 106.54 194.47 106.54 206.79 63.12z"/><path d="M236 97.34c-.802.125-1.604.238-2.404.338-.802.101-1.427.15-1.878.15-3.455-.049-6.135-1.251-8.04-3.605-1.904-2.354-2.881-5.884-2.93-10.592 0-2.303.062-4.319.188-6.05.124-1.728.4-3.18.826-4.357.425-1.176 1.039-2.053 1.841-2.629.8-.575 1.852-.864 3.154-.864 1 0 2.254.139 3.756.413 1.503.276 2.941.577 4.319.902 1.377.326 3.067.739 5.071 1.239l-.226-7.813-.977-.225c-2.604-.601-4.92-1.026-6.948-1.277-2.028-.25-3.819-.376-5.371-.376-3.105 0-5.947.601-8.526 1.803-2.579 1.202-4.796 2.867-6.647 4.995-1.854 2.129-3.293 4.67-4.319 7.625-1.027 2.956-1.54 6.16-1.54 9.615 0 3.055.425 5.847 1.277 8.375.851 2.529 2.065 4.721 3.643 6.573 1.578 1.854 3.48 3.281 5.709 4.282 2.228 1 4.695 1.502 7.399 1.502 1.902 0 4.068-.238 6.498-.714 2.428-.475 5.521-1.264 9.276-2.366l1.052-.3-1.202-7.136C237.8 97.05 236.8 97.21 236 97.34z"/><path d="M281.37 59.968c-1.953-2.604-4.395-4.444-7.324-5.521-2.93-1.077-6.773-1.589-11.53-1.54l-17.729.15 0 53.634 15.625-.15c4.256-.049 7.85-.575 10.779-1.578 2.93-1 5.57-2.729 7.925-5.183l-.075 0c5.058-5.108 7.587-12.319 7.587-21.634C286.63 70.73 284.87 64.67 281.37 59.968zM270.59 88.17c-.427 2.43-1.052 4.395-1.878 5.897s-1.878 2.58-3.155 3.23c-1.277.651-2.792.977-4.545.977l-1.201 0L259.81 61.17l1.728 0c1.052 0 1.965.075 2.741.226s1.439.401 1.991.751c.55.351 1.052.827 1.502 1.427.451.601.876 1.328 1.277 2.179.7 1.453 1.251 3.318 1.652 5.596.4 2.279.575 4.92.526 7.925C271.23 82.78 271.01 85.75 270.59 88.17z"/><path d="M324.62 68.08c-1.728-1.903-3.831-3.354-6.31-4.357-2.479-1-5.296-1.502-8.451-1.502-3.154 0-5.984.563-8.488 1.69-2.505 1.126-4.646 2.717-6.422 4.77-1.778 2.054-3.155 4.52-4.132 7.399-.977 2.88-1.465 6.073-1.465 9.578 0 3.305.463 6.298 1.39 8.977.926 2.68 2.266 4.958 4.02 6.835s3.855 3.331 6.311 4.357c2.453 1.026 5.232 1.54 8.338 1.54 3.155 0 5.996-.575 8.525-1.728 2.528-1.152 4.683-2.742 6.461-4.77 1.776-2.028 3.154-4.481 4.131-7.362.977-2.879 1.465-6.05 1.465-9.502 0-3.354-.464-6.372-1.39-9.05C327.67 72.28 326.34 69.984 324.62 68.08zM314.66 93.25c-.2 1.803-.501 3.192-.901 4.169-.401.977-.927 1.641-1.577 1.991-.651.351-1.428.526-2.329.526s-1.703-.212-2.403-.639c-.702-.425-1.277-1.227-1.728-2.404-.451-1.176-.789-2.779-1.015-4.808-.225-2.028-.338-4.645-.338-7.85 0-3 .087-5.433.263-7.287.175-1.852.476-3.279.901-4.282.426-1 .951-1.677 1.578-2.028.625-.35 1.39-.525 2.291-.525.95 0 1.776.213 2.479.638.701.426 1.289 1.228 1.766 2.404.476 1.177.813 2.805 1.014 4.883.2 2.079.301 4.77.301 8.08C314.96 89.06 314.86 91.44 314.66 93.25z"/><path d="M356.06 63.2c-1.653-.4-3.507-.601-5.56-.601-2.554 0-4.908.376-7.06 1.127-2.154.751-4.02 1.829-5.597 3.23-1.577 1.403-2.805 3.068-3.681 4.996-.877 1.928-1.314 4.04-1.314 6.347 0 5.91 2.679 10.09 8.04 12.545-1.103.952-2.028 1.791-2.78 2.516-.751.727-1.364 1.403-1.84 2.028-.477.627-.814 1.24-1.015 1.84-.2.601-.3 1.252-.3 1.953 0 1.604.676 3.13 2.028 4.582-1.303.853-2.38 1.591-3.23 2.216-.853.626-1.527 1.239-2.028 1.84-.5.601-.851 1.202-1.052 1.803-.199.601-.3 1.277-.3 2.028.05 1.803.589 3.418 1.614 4.845 1.026 1.427 2.404 2.641 4.132 3.643 1.728 1 3.756 1.777 6.085 2.329 2.328.55 4.819.826 7.474.826 3.354 0 6.485-.439 9.39-1.314 2.904-.877 5.421-2.104 7.55-3.681 2.128-1.578 3.805-3.481 5.03-5.709 1.227-2.229 1.84-4.67 1.84-7.324 0-3.104-.977-5.608-2.93-7.512l0-.075c-1.152-1.101-2.467-1.84-3.943-2.216-1.478-.375-3.493-.563-6.05-.563l-9.991 0c-.901 0-1.565-.024-1.99-.075-.426-.049-.714-.112-.864-.188s-.225-.162-.225-.263c0-.15-.026-.325-.075-.526 0-.199 0-.35 0-.451 0-.15.049-.35.149-.601 1 .201 2.104.3 3.306.3 2.504 0 4.832-.35 6.986-1.052 2.152-.701 4.02-1.69 5.596-2.967 1.578-1.277 2.805-2.804 3.681-4.582.876-1.777 1.314-3.768 1.314-5.972 0-2.453-.576-4.682-1.728-6.686l8.413 2.479 0-9.165-14.272 0C359.31 64.25 357.71 63.6 356.06 63.2zM357.26 107.37c1.052 0 1.841.024 2.366.075.526.049.913.15 1.165.3.25.15.387.35.413.601.024.25.087.575.188.977.049.65-.176 1.314-.676 1.991-.502.676-1.24 1.289-2.217 1.84-.977.55-2.153 1-3.53 1.352-1.378.35-2.892.526-4.545.526-1.352 0-2.579-.139-3.681-.413-1.102-.276-2.054-.639-2.854-1.089-.802-.451-1.402-.952-1.803-1.502-.401-.552-.576-1.102-.525-1.652 0-.301.112-.714.338-1.24s.425-.977.601-1.352c.175-.375.288-.589.338-.639l3.531.226L357.26 107.37zM353.77 84.944c-.576.676-1.539 1.064-2.892 1.165-.651.05-1.266-.137-1.841-.563-.576-.425-1.077-1.101-1.502-2.028-.426-.926-.764-2.103-1.014-3.53-.252-1.427-.376-3.142-.376-5.146.049-2 .376-3.354.977-4.057.601-.701 1.552-1.101 2.854-1.202.65-.049 1.264.138 1.84.563.575.426 1.077 1.089 1.503 1.991.425.901.763 2.066 1.014 3.493.25 1.427.376 3.143.376 5.146C354.66 82.88 354.34 84.27 353.77 84.944z"/><path d="M407.02 89.38c-.301-1.127-.789-2.19-1.465-3.192-.677-1-1.566-1.978-2.667-2.93-1.103-.951-2.454-1.953-4.057-3l-5.03-3.23 0-.075c-1-.65-1.766-1.164-2.291-1.54-.526-.375-.915-.713-1.165-1.014-.251-.3-.401-.612-.45-.939-.051-.325-.075-.713-.075-1.164-.051-1 .35-1.79 1.202-2.366.851-.575 1.852-.864 3-.864.951 0 2.04.138 3.268.413 1.227.276 2.378.563 3.456.864 1.076.3 2.366.727 3.868 1.277l1.652.676-.074-7.512-2.705-.601c-1.603-.35-3.02-.625-4.244-.826-1.228-.2-2.316-.363-3.268-.488-.951-.125-1.803-.2-2.554-.226-.751-.024-1.502-.038-2.254-.038-2.153 0-4.131.301-5.934.901-1.803.601-3.343 1.465-4.62 2.592s-2.279 2.505-3 4.131c-.727 1.628-1.089 3.418-1.089 5.371 0 1.303.137 2.492.413 3.568.274 1.078.726 2.092 1.352 3.042.626.952 1.439 1.891 2.441 2.817 1 .927 2.229 1.866 3.682 2.817l4.882 3.305c1.252.852 2.229 1.54 2.93 2.066s1.227.989 1.578 1.39c.35.401.563.764.638 1.089.075.326.113.739.113 1.239.049.501-.075.965-.376 1.39-.3.426-.714.802-1.239 1.127-.525.326-1.127.576-1.803.751-.676.176-1.365.263-2.065.263-1.052 0-2.217-.162-3.493-.488-1.277-.325-2.479-.688-3.605-1.089-1.127-.4-2.468-.977-4.02-1.728l-1.652-.976-.226 8.413.901.225c2.955.751 5.759 1.365 8.413 1.84 2.654.476 4.833.714 6.536.714 2.253 0 4.331-.338 6.234-1.014 1.902-.676 3.542-1.64 4.92-2.892 1.377-1.251 2.453-2.767 3.23-4.544.775-1.777 1.164-3.718 1.164-5.822C407.47 91.74 407.32 90.5 407.02 89.38z"/></g></g></svg>